<svg width="20" height="19" viewBox="0 0 20 19" fill="none" xmlns="http://www.w3.org/2000/svg">
<path d="M10.0003 0.769531C10.3255 0.769531 12.7597 5.81047 13.1711 6.10926C13.5823 6.4082 19.1287 7.16549 19.2292 7.47476C19.3297 7.78403 15.2878 11.6569 15.1306 12.1404C14.9735 12.624 15.9671 18.1329 15.7041 18.3241C15.441 18.5153 10.5087 15.8678 10.0003 15.8678C9.49195 15.8678 4.55958 18.5153 4.29645 18.3241C4.03348 18.1329 5.02712 12.624 4.86998 12.1404C4.71285 11.6569 0.670866 7.78403 0.771375 7.47476C0.871884 7.16549 6.41827 6.4082 6.82951 6.10926C7.2409 5.81047 9.67506 0.769531 10.0003 0.769531Z" fill="#DFB214" stroke="#DFB214" stroke-width="1.02736" stroke-linecap="round" stroke-linejoin="round"/>
</svg>
